<svg width="76" height="76" viewBox="0 0 76 76" fill="none" xmlns="http://www.w3.org/2000/svg">
<path fill-rule="evenodd" clip-rule="evenodd" d="M7.25132 6.81671H7.92219H69.0931L69.1086 51.1211L69.0334 52.3445L66.8016 52.3434H5.36231L7.30726 52.3445L7.25132 51.1199V6.81671ZM0.774344 75.1094H75.5648L75.5833 1.51894L75.7617 0.31743H0.242188L0.845023 0.315918L0.774344 1.52045V75.1094Z" fill="#4f319b"/>
<path fill-rule="evenodd" clip-rule="evenodd" d="M20.7377 33.9326C18.9178 36.864 16.2635 42.5499 14.8477 45.854L61.8994 45.8562C61.8423 44.716 52.316 21.1124 51.3549 19.584C48.9726 22.4224 43.8045 31.4124 41.2023 34.5702C39.6633 33.8971 35.0836 28.6836 33.8421 27.4813C32.2316 29.0869 28.206 36.5314 26.3151 39.2806L20.7377 33.9326Z" fill="#4f319b"/>
<path fill-rule="evenodd" clip-rule="evenodd" d="M20.4588 17.1182C14.3125 19.0601 17.1695 28.2803 23.4189 26.2968C28.9189 24.551 26.7888 15.1181 20.4588 17.1182Z" fill="#4f319b"/>
</svg>
