<svg width="12135" height="4326" viewBox="0 0 12135 4326" fill="none" xmlns="http://www.w3.org/2000/svg">
<path fill-rule="evenodd" clip-rule="evenodd" d="M9512.92 4271.16H8320.95L8172.76 3735.4C8148.72 3650 8124.93 3564.33 8101.09 3478.45L8101.03 3478.27C8075.59 3386.66 8050.1 3294.84 8024.17 3202.89C8019.54 3186.49 8015.73 3172.29 8011.76 3157.49L8011.73 3157.37C8009.69 3149.76 8007.62 3142.01 8005.36 3133.71C8002.99 3125.02 8000.33 3115.85 7997.62 3106.56C7993.79 3093.35 7989.89 3079.91 7986.66 3067.26L7838.17 2534.64C7830.19 2507.54 7822.69 2480.16 7815.1 2452.53L7815.08 2452.48C7810.46 2435.6 7805.8 2418.63 7800.99 2401.54C7791.14 2366.53 7781.48 2331.3 7771.78 2295.92L7771.74 2295.78C7757.13 2242.48 7742.44 2188.84 7726.83 2135.14C7701.42 2047.72 7677.14 1958.7 7652.93 1869.9V1869.89H7652.92C7628.18 1779.14 7603.5 1688.62 7577.73 1600.29L7484.9 1267.43C7479.16 1244.45 7472.95 1223.06 7466.4 1200.8C7444.86 1127.56 7424.28 1052.21 7403.64 976.606V976.578L7403.63 976.571V976.549C7387.44 917.261 7371.21 857.797 7354.43 799.087L7131.84 0H8323.8C8328.38 9.56546 8333.99 35.674 8338.4 56.2011C8340.22 64.6647 8341.83 72.1806 8343.09 77.1949L8398.72 305.366C8405.33 331.776 8411.55 357.375 8417.77 383.006L8417.79 383.081C8423.79 407.786 8429.79 432.531 8436.17 458.047L8509.96 761.716C8576.23 1026.59 8640.34 1293.06 8704.43 1559.48L8704.45 1559.53L8704.47 1559.6L8704.5 1559.72L8704.51 1559.82C8768.56 1826.03 8832.6 2092.19 8898.77 2356.66L8916.93 2432.14L8993.01 2127.94C9005.19 2078.93 9016.91 2030.02 9028.59 1981.3L9028.64 1981.08V1981.07L9028.66 1981.01C9041.25 1928.47 9053.79 1876.16 9066.77 1824.25L9214.33 1216.9C9225.58 1169.15 9237.46 1121.65 9249.3 1074.27L9249.31 1074.24L9249.32 1074.21L9251.82 1064.24L9363.1 607.897C9375.24 559.186 9387.01 510.117 9398.78 460.858V460.693C9411.29 408.691 9423.71 356.481 9436.88 304.235L9437.44 301.971C9445.57 269.488 9509.74 14.0485 9510.12 0H10702C10701.7 17.5983 10632.4 256.907 10628.5 269.936C10609.5 334.895 10591.3 401.965 10573.1 469.117V469.181V469.217C10554.7 536.552 10536.4 603.974 10517.2 669.421L10331.2 1337.69C10301.2 1441.53 10272.2 1547.58 10243.3 1653.53L10243.2 1653.59V1653.63C10211.1 1771.35 10179.1 1888.95 10145.4 2003.27L9959.48 2671.54C9947.25 2713.77 9935.66 2755.96 9924.18 2798C9911.38 2844.81 9898.58 2891.43 9885.04 2937.64C9878.41 2960.03 9872.43 2982.52 9866.45 3004.9C9860.47 3027.12 9854.59 3049.22 9848.14 3071.03C9808.91 3204.53 9770.99 3342.71 9733.16 3480.56V3480.71L9733.07 3480.78C9709.34 3567.34 9685.62 3653.75 9661.71 3738.82C9650.97 3776.89 9640.79 3814.27 9630.6 3851.51L9630.51 3851.66V3851.75L9630.42 3851.93V3852.02C9616.59 3902.91 9602.77 3953.55 9587.73 4005.39C9579.42 4034.02 9571.57 4062.41 9563.73 4090.44C9559.34 4106.54 9554.85 4122.53 9550.37 4138.39L9512.92 4271.16ZM1191.95 4271.16H0V2.83912H1779.41C1787.01 2.83912 1787.7 6.95605 1789.39 17.0527C1790.07 21.1337 1790.92 26.1982 1792.46 32.3646L1833.91 200.928C1881.26 390.228 1926.95 580.137 1972.64 770.064L1972.65 770.104C2018 958.563 2063.34 1147.05 2110.32 1334.99L2175.53 1601.82C2193.49 1684.36 2371.76 2415.74 2381 2437.9L2422.5 2603.57C2425.48 2615.5 2428.03 2626.45 2430.6 2637.44V2637.46L2430.61 2637.47C2433.07 2648 2435.52 2658.56 2438.37 2670C2458.95 2752.86 2479.19 2836.28 2499.46 2919.9L2499.47 2919.96L2499.49 2920.01C2522.38 3014.41 2545.34 3109.08 2568.94 3203.51L2731.85 3872.14C2747.68 3941.99 2765.56 4012.9 2783.51 4084.12V4084.12L2783.52 4084.21C2799.22 4146.45 2814.98 4208.94 2829.47 4271.16H1782.25C1770.23 4219.57 1758.27 4169.2 1745.36 4117.91L1635.25 3666.09C1579.5 3445.18 1525.59 3221.46 1471.75 2998.05V2998.04L1471.74 2998.01V2997.98C1428.12 2816.98 1384.55 2636.15 1340.07 2457.15L1201.59 1888.98C1199.67 1881.36 1199.18 1878.95 1197.89 1872.53L1197.46 1870.4L1191.95 4271.16ZM2507.42 1990.96C2509.85 1999.81 2512.09 2007.96 2513.26 2013.33C2529.37 2087.41 2549.85 2167.34 2570.27 2247.1V2247.11V2247.12C2590.6 2326.5 2610.88 2405.69 2626.78 2478.75C2632.99 2507.28 2639.69 2534.34 2646.36 2561.29V2561.31L2646.37 2561.34C2650.5 2578 2654.62 2594.63 2658.6 2611.54C2669.28 2656.85 2680.05 2700.04 2691.55 2746.03C2702.82 2791.09 2713.51 2835.29 2724.21 2879.49C2734.89 2923.63 2745.57 2967.79 2756.82 3012.8L3016.77 4081.01C3022.81 4076.6 3022.82 4076.57 3024.09 4069.13C3024.75 4065.26 3025.75 4059.37 3028.13 4049.8C3030.13 4041.76 3032.12 4033.83 3034.11 4025.86L3036.65 4015.74C3039.55 4004.13 3042.36 3992.21 3045.16 3980.28L3045.17 3980.22C3047.97 3968.3 3050.77 3956.4 3053.68 3944.8C3059.41 3921.83 3065.05 3898.55 3070.71 3875.26C3076.35 3851.98 3081.99 3828.69 3087.73 3805.73L3273.9 3041.18C3275.79 3033.59 3277.75 3026.05 3279.69 3018.6V3018.58C3283.95 3002.15 3288.12 2986.08 3291.36 2970.66C3304.15 2909.87 3328.37 2813.82 3347.09 2739.63C3351.44 2722.37 3355.5 2706.28 3359.03 2692.1C3370.31 2647.03 3381.03 2602.75 3391.74 2558.52L3391.75 2558.48C3403.34 2510.56 3414.93 2462.72 3427.16 2414.01C3439.39 2365.39 3450.68 2317.99 3461.96 2270.58V2270.56C3472.61 2225.83 3483.25 2181.09 3494.7 2135.3C3500.62 2111.64 3506.16 2088.74 3511.7 2065.84L3511.71 2065.83C3517.26 2042.91 3522.82 2019.97 3528.75 1996.23C3530.16 1990.6 3532.6 1980.12 3535.59 1967.31V1967.3V1967.29C3544.98 1926.94 3559.74 1863.55 3564.51 1856.03L3567.35 4271.16H4756.46V2.83912H2971.37L2882.81 365.512C2879.08 381.315 2874.95 397.643 2870.8 414.025L2870.79 414.064C2864.37 439.415 2857.92 464.914 2852.89 488.836C2843.94 531.359 2833.12 572.937 2822.31 614.508L2822.3 614.519C2812.3 652.935 2802.31 691.362 2793.79 730.564C2784.68 772.351 2774.44 812.612 2764.19 852.858C2753.94 893.084 2743.71 933.305 2734.62 975.067L2512.19 1884.99C2511.86 1886.29 2511.34 1888.37 2510.67 1891L2510.59 1891.28C2506.5 1907.34 2497.43 1942.96 2497.43 1946.85C2497.43 1954.62 2502.78 1974.08 2507.42 1990.96ZM6010.13 3138.09C6146.2 3002.13 6181.13 2740.5 6181.13 2531.48V0H6896.29C6897.23 11.274 6902.3 27.5299 6906.71 41.6573C6908.35 46.8977 6909.89 51.8473 6911.1 56.1401L7016.08 430.79C7021.69 451.436 7027.85 472.957 7034.03 494.55C7038.3 509.493 7042.59 524.467 7046.7 539.216C7056.62 574.681 7066.35 609.099 7076.71 645.444L7167.51 968.979C7171.83 984.108 7175.9 998.774 7179.94 1013.3C7185.67 1033.92 7191.33 1054.25 7197.46 1075.26C7207.94 1111.2 7217.84 1147.22 7227.78 1183.42C7237.5 1218.84 7247.28 1254.43 7257.7 1290.3C7258.74 1293.85 7375.92 1697.83 7375.92 1719.82L7372.3 2706.66C7369.85 2724.5 7369.02 2744.27 7368.16 2764.37C7367.26 2785.96 7366.32 2807.93 7363.36 2828.27L7350.54 2945.99C7305.47 3263.86 7223.6 3551.79 7028.48 3801.69L6968.89 3872.65C6957.8 3886.99 6939.87 3904.06 6923.52 3919.63C6916.53 3926.27 6909.85 3932.64 6904.1 3938.41C6849.78 3992.91 6741.84 4072.27 6678.65 4107.43C6480.76 4217.55 6316.3 4267.45 6088.34 4300.41C6071.97 4302.77 6047.94 4306.15 6030.45 4307.8L5910.32 4318.21C5901.76 4319.5 5894.51 4319.42 5886.52 4319.33C5883.6 4319.29 5880.57 4319.26 5877.35 4319.29C5869.2 4319.38 5865.29 4320.07 5861.25 4320.79C5858.02 4321.36 5854.71 4321.95 5849.09 4322.26C5835.26 4323.01 5819.74 4322.74 5804.7 4322.49C5797.54 4322.37 5790.5 4322.25 5783.81 4322.24C5770.98 4322.23 5760.97 4323.01 5751.18 4323.76C5741.79 4324.49 5732.6 4325.2 5721.35 4325.18C5710.85 4325.17 5701.78 4324.49 5692.45 4323.78C5682.32 4323.02 5671.88 4322.24 5658.94 4322.25C5646.2 4322.25 5633.48 4322.25 5620.75 4322.25C5611.72 4322.25 5602.7 4322.24 5593.67 4322.25L5223.51 4300.76C5210.37 4298.89 5196.68 4297.56 5183.85 4296.32C5177.14 4295.67 5170.65 4295.04 5164.62 4294.38L4992.01 4271.16V3170.03L5040.62 3186.69C5047 3188.81 5053.01 3190.85 5058.97 3192.85C5068.87 3196.19 5078.6 3199.48 5089.53 3203.04C5183.93 3233.86 5305.88 3262.57 5404.34 3277.05C5444.94 3283.01 5479.51 3286.09 5522.54 3289.39C5525.36 3289.6 5528.34 3289.84 5531.47 3290.08C5565.84 3292.78 5616.77 3296.76 5645.52 3292.83C5655.89 3291.41 5666.11 3290.98 5676.32 3290.55C5686.27 3290.13 5696.22 3289.71 5706.35 3288.39C5806.25 3275.28 5903.14 3236.39 5977.48 3170.71C5985.09 3163.99 5992.18 3156.61 5999.33 3149.19C6002.89 3145.48 6006.47 3141.75 6010.13 3138.09Z" fill="#6D50B5"/>
<path d="M11200.4 3936.45C11200.4 4140.38 11308.3 4280.67 11481.4 4280.67C11643.9 4280.67 11710.5 4171.56 11739.8 4046.86L11779.8 3865.01C11793.1 3802.66 11818.4 3784.47 11858.3 3784.47C11913 3784.47 11950.2 3832.53 11950.2 3913.07C11950.2 4000.1 11910.3 4062.45 11818.4 4084.53L11862.3 4305.35C12036.8 4281.97 12132.7 4120.9 12132.7 3924.76C12132.7 3731.22 12034.2 3566.25 11843.7 3566.25C11702.5 3566.25 11618.6 3654.58 11584 3805.26L11542.7 3985.81C11530.7 4040.36 11504.1 4055.95 11468.1 4055.95C11417.5 4055.95 11377.5 4010.49 11377.5 3939.05C11377.5 3870.2 11418.8 3802.66 11502.7 3787.07L11458.8 3576.65C11296.3 3609.12 11200.4 3746.8 11200.4 3936.45ZM11412.2 2732.34H11220.4V3509.1H11412.2V3227.23H12112.7V3014.2H11412.2V2732.34ZM11200.4 2232.25C11200.4 2492.03 11406.8 2695.97 11667.9 2695.97C11927.6 2695.97 12132.7 2492.03 12132.7 2232.25C12132.7 1972.46 11927.6 1768.53 11667.9 1768.53C11406.8 1768.53 11200.4 1972.46 11200.4 2232.25ZM11931.6 2232.25C11931.6 2373.83 11819.7 2481.64 11667.9 2481.64C11514.7 2481.64 11401.5 2373.83 11401.5 2232.25C11401.5 2090.66 11514.7 1982.85 11667.9 1982.85C11819.7 1982.85 11931.6 2090.66 11931.6 2232.25ZM12112.7 850.182L11795.8 1122.96C11763.8 982.673 11658.6 894.344 11512.1 894.344C11337.6 894.344 11220.4 1019.04 11220.4 1207.39V1647.73H12112.7V1433.4H11806.4V1371.05L12112.7 1108.67V850.182ZM11622.6 1433.4H11408.2V1230.77C11408.2 1154.13 11450.8 1104.77 11514.7 1104.77C11580 1104.77 11622.6 1154.13 11622.6 1230.77V1433.4ZM11923.6 87.7051V551.423H11755.8V129.269H11577.3V551.423H11409.5V91.5994H11220.4V765.747H12112.7V87.7051H11923.6Z" fill="#4EB793" stroke="#4EB793" stroke-width="3.20013" stroke-miterlimit="22.9256"/>
</svg>
