<?xml version="1.0" encoding="UTF-8"?>
<!DOCTYPE svg PUBLIC "-//W3C//DTD SVG 1.1//EN" "http://www.w3.org/Graphics/SVG/1.1/DTD/svg11.dtd">
<!-- Creator: CorelDRAW -->
<svg xmlns="http://www.w3.org/2000/svg" xml:space="preserve" width="84.6666mm" height="84.6666mm" version="1.1" style="shape-rendering:geometricPrecision; text-rendering:geometricPrecision; image-rendering:optimizeQuality; fill-rule:evenodd; clip-rule:evenodd"
viewBox="0 0 8466.66 8466.66"
 xmlns:xlink="http://www.w3.org/1999/xlink"
 xmlns:xodm="http://www.corel.com/coreldraw/odm/2003">
 <defs>
  <style type="text/css">
   <![CDATA[
    .str0 {stroke:#4EB793;stroke-width:84.67;stroke-miterlimit:22.9256}
    .fil0 {fill:#6D50B5}
    .fil1 {fill:#4EB793;fill-rule:nonzero}
   ]]>
  </style>
 </defs>
 <g id="Camada_x0020_1">
  <metadata id="CorelCorpID_0Corel-Layer"/>
  <g id="logomjv.svg">
   <path class="fil0" d="M-5598.19 10942.43l-3320.9 0 -412.85 -1492.66c-66.98,-237.93 -133.26,-476.61 -199.7,-715.87l-0.16 -0.52c-70.86,-255.21 -141.9,-511.04 -214.14,-767.23 -12.88,-45.67 -23.5,-85.23 -34.56,-126.48l-0.1 -0.33c-5.68,-21.19 -11.45,-42.78 -17.75,-65.92 -6.59,-24.2 -14,-49.76 -21.55,-75.64 -10.67,-36.81 -21.55,-74.25 -30.53,-109.48l-413.71 -1483.92c-22.22,-75.51 -43.14,-151.79 -64.27,-228.76l-0.06 -0.16c-12.87,-47.02 -25.87,-94.31 -39.26,-141.9 -27.45,-97.54 -54.36,-195.7 -81.38,-294.27l-0.1 -0.39c-40.7,-148.51 -81.63,-297.94 -125.12,-447.55 -70.81,-243.57 -138.44,-491.59 -205.89,-738.99l0 -0.03 -0.03 0c-68.94,-252.84 -137.69,-505.02 -209.49,-751.13l-258.64 -927.35c-16,-64.04 -33.3,-123.63 -51.55,-185.65 -60,-204.04 -117.33,-413.97 -174.85,-624.61l0 -0.08 -0.02 -0.02 0 -0.06c-45.1,-165.18 -90.33,-330.85 -137.07,-494.42l-620.15 -2226.31 3320.87 0c12.78,26.65 28.39,99.39 40.68,156.58 5.06,23.58 9.57,44.52 13.06,58.49l154.99 635.7c18.43,73.58 35.76,144.9 53.09,216.31l0.05 0.21c16.71,68.83 33.44,137.77 51.21,208.86l205.58 846.04c184.63,737.95 363.24,1480.36 541.8,2222.62l0.06 0.15 0.05 0.19 0.08 0.33 0.05 0.29c178.44,741.68 356.86,1483.21 541.2,2220.05l50.61 210.29 211.96 -847.52c33.93,-136.54 66.59,-272.83 99.12,-408.56l0.16 -0.6 0 -0.04 0.05 -0.16c35.08,-146.38 70.01,-292.12 106.17,-436.75l411.11 -1692.12c31.34,-133.02 64.44,-265.38 97.43,-397.37l0.03 -0.08 0.02 -0.08 6.96 -27.78 310.03 -1271.41c33.83,-135.71 66.63,-272.42 99.41,-409.66l0 -0.46c34.87,-144.88 69.48,-290.34 106.17,-435.9l1.56 -6.31c22.65,-90.5 201.42,-802.17 202.47,-841.31l3320.79 0c-1.04,49.03 -194.13,715.76 -204.8,752.06 -53.09,180.98 -103.83,367.84 -154.57,554.93l0 0.18 0 0.1c-51.01,187.6 -102.02,375.44 -155.62,557.78l-518.12 1861.84c-83.8,289.32 -164.47,584.76 -244.88,879.94l-0.26 0.19 0 0.1c-89.52,327.97 -178.78,655.62 -272.46,974.12l-518.12 1861.86c-34.09,117.63 -66.36,235.2 -98.36,352.3 -35.66,130.43 -71.31,260.31 -109.04,389.05 -18.48,62.38 -35.13,125.04 -51.79,187.39 -16.65,61.91 -33.05,123.5 -51.01,184.26 -109.29,371.93 -214.94,756.91 -320.34,1140.96l0 0.44 -0.25 0.19c-66.11,241.15 -132.2,481.91 -198.82,718.91 -29.93,106.06 -58.29,210.21 -86.66,313.97l-0.25 0.41 0 0.26 -0.27 0.5 0 0.23c-38.52,141.8 -77.03,282.89 -118.92,427.32 -23.16,79.76 -45.03,158.85 -66.88,236.94 -12.24,44.87 -24.73,89.41 -37.22,133.61l-104.35 369.89zm-23182.76 0l-3320.85 0 0 -11891.82 4957.56 0c21.16,0 23.09,11.47 27.8,39.6l0 0c1.9,11.37 4.27,25.48 8.56,42.66l115.48 469.63c131.92,527.4 259.2,1056.5 386.5,1585.65l0.03 0.11c126.34,525.06 252.68,1050.2 383.55,1573.81l181.69 743.4c50.04,229.96 546.7,2267.65 572.45,2329.37l115.63 461.57c8.3,33.24 15.4,63.75 22.56,94.36l0 0 0 0.08 0.02 0.02c6.85,29.33 13.69,58.74 21.63,90.62 57.35,230.87 113.72,463.28 170.19,696.24l0.05 0.16 0.03 0.15c63.79,263.01 127.75,526.76 193.51,789.85l453.86 1862.84c44.11,194.62 93.92,392.18 143.93,590.59l0 0.02 0.05 0.23c43.72,173.42 87.63,347.52 128.01,520.86l-2917.62 0c-33.49,-143.73 -66.82,-284.07 -102.79,-426.97l-306.76 -1258.78c-155.33,-615.49 -305.53,-1238.77 -455.53,-1861.21l0 -0.03 -0.03 -0.08 0 -0.08c-121.52,-504.3 -242.92,-1008.08 -366.84,-1506.8l-385.81 -1582.96c-5.34,-21.24 -6.72,-27.95 -10.31,-45.83l-1.2 -5.93 -15.35 6688.67zm3665 -6352.79l0 0c6.76,24.67 13.01,47.36 16.26,62.32 44.89,206.39 101.94,429.09 158.84,651.31l0 0.03 0 0.02c56.64,221.15 113.13,441.79 157.42,645.35 17.31,79.47 35.97,154.86 54.57,229.96l0 0.05 0.03 0.08c11.49,46.42 22.97,92.75 34.06,139.85 29.75,126.24 59.78,246.59 91.81,374.7 31.39,125.56 61.18,248.7 90.98,371.84 29.77,122.99 59.53,246 90.87,371.41l724.24 2976.11c16.81,-12.3 16.84,-12.38 20.38,-33.1l0 0c1.85,-10.8 4.63,-27.19 11.26,-53.87 5.58,-22.4 11.12,-44.47 16.66,-66.69l7.08 -28.19c8.09,-32.34 15.9,-65.57 23.71,-98.8l0.02 -0.16c7.81,-33.21 15.62,-66.38 23.71,-98.7 15.98,-63.97 31.69,-128.85 47.44,-193.72 15.72,-64.88 31.43,-129.75 47.42,-193.72l518.69 -2130.1c5.28,-21.14 10.72,-42.14 16.13,-62.9l0 -0.06c11.87,-45.78 23.48,-90.53 32.52,-133.5 35.64,-169.37 103.11,-436.97 155.26,-643.67 12.12,-48.1 23.43,-92.91 33.28,-132.41 31.41,-125.58 61.27,-248.96 91.11,-372.18l0.03 -0.11c32.3,-133.49 64.59,-266.8 98.67,-402.51 34.07,-135.46 65.51,-267.5 96.94,-399.59l0 -0.05c29.67,-124.62 59.33,-249.28 91.22,-376.86 16.49,-65.92 31.92,-129.7 47.38,-193.52l0.02 -0.02c15.47,-63.86 30.95,-127.78 47.47,-193.9 3.93,-15.69 10.72,-44.89 19.05,-80.59l0 -0.02 0 -0.03c26.18,-112.42 67.3,-289.04 80.59,-309.97l7.89 6728.7 3312.96 0 0 -11891.82 -4973.38 0 -246.75 1010.43c-10.39,44.03 -21.89,89.52 -33.44,135.16l-0.03 0.11c-17.9,70.63 -35.88,141.67 -49.89,208.32 -24.92,118.47 -55.06,234.31 -85.19,350.13l-0.03 0.03c-27.85,107.03 -55.69,214.09 -79.44,323.31 -25.36,116.42 -53.9,228.59 -82.45,340.72 -28.55,112.07 -57.07,224.13 -82.39,340.48l-619.71 2535.11c-0.91,3.61 -2.37,9.42 -4.24,16.73l-0.21 0.78c-11.39,44.76 -36.66,143.99 -36.66,154.84 0,21.63 14.91,75.86 27.84,122.88zm9758.78 3195.99c379.09,-378.81 476.4,-1107.72 476.4,-1690.07l0 -7052.86 1992.5 0c2.6,31.41 16.73,76.7 29.02,116.06 4.58,14.6 8.87,28.39 12.22,40.35l292.48 1043.8c15.64,57.52 32.79,117.48 50.01,177.64 11.9,41.63 23.85,83.35 35.32,124.44 27.63,98.81 54.73,194.7 83.59,295.96l252.99 901.39c12.02,42.15 23.37,83.01 34.63,123.47 15.96,57.46 31.73,114.11 48.8,172.64 29.2,100.14 56.79,200.48 84.47,301.34 27.09,98.68 54.33,197.83 83.38,297.76 2.89,9.89 329.35,1135.41 329.35,1196.67l-10.07 2749.41c-6.83,49.7 -9.14,104.79 -11.53,160.79 -2.53,60.14 -5.13,121.35 -13.38,178.03l-35.73 327.96c-125.56,885.62 -353.65,1687.81 -897.27,2384.05l-166.03 197.69c-30.88,39.97 -80.85,87.52 -126.41,130.9 -19.45,18.5 -38.08,36.25 -54.08,52.31 -151.36,151.84 -452.08,372.96 -628.12,470.91 -551.35,306.79 -1009.53,445.82 -1644.65,537.65 -45.6,6.59 -112.56,15.99 -161.29,20.59l-334.68 29.01c-23.87,3.59 -44.06,3.37 -66.31,3.13 -8.15,-0.11 -16.58,-0.2 -25.55,-0.11 -22.72,0.24 -33.6,2.17 -44.87,4.17 -9,1.59 -18.22,3.23 -33.86,4.09 -38.53,2.08 -81.79,1.35 -123.69,0.64 -19.93,-0.33 -39.55,-0.67 -58.2,-0.69 -35.74,-0.03 -63.63,2.13 -90.9,4.24 -26.16,2.02 -51.77,4 -83.12,3.95 -29.25,-0.02 -54.52,-1.93 -80.52,-3.91 -28.2,-2.1 -57.3,-4.28 -93.36,-4.26 -35.48,0 -70.92,0 -106.39,0 -25.16,0 -50.3,-0.02 -75.46,0l-1031.27 -59.88c-36.62,-5.2 -74.77,-8.9 -110.49,-12.36 -18.72,-1.8 -36.78,-3.57 -53.59,-5.41l-480.9 -64.69 0 -3067.83 135.42 46.42c17.78,5.91 34.54,11.59 51.14,17.18 27.58,9.29 54.69,18.45 85.14,28.39 262.99,85.87 602.75,165.85 877.08,206.18 113.1,16.6 209.44,25.19 329.32,34.38 7.86,0.6 16.16,1.25 24.86,1.92 95.78,7.53 237.66,18.63 317.76,7.68 28.89,-3.96 57.36,-5.15 85.82,-6.35 27.72,-1.17 55.44,-2.34 83.65,-6.04 278.34,-36.51 548.27,-144.86 755.39,-327.86 21.2,-18.71 40.96,-39.27 60.87,-59.96 9.93,-10.33 19.91,-20.71 30.11,-30.91z"/>
  </g>
  <path class="fil1 str0" d="M-896.72 10009.92c0,568.17 300.56,959.01 782.94,959.01 452.71,0 638.24,-303.99 719.87,-651.41l111.33 -506.64c37.1,-173.71 107.61,-224.38 218.93,-224.38 152.13,0 256.03,133.9 256.03,358.28 0,242.46 -111.32,416.17 -367.35,477.69l122.44 615.22c486.1,-65.14 753.27,-513.89 753.27,-1060.34 0,-539.22 -274.59,-998.83 -805.21,-998.83 -393.34,0 -627.11,246.09 -723.58,665.89l-115.04 503.03c-33.39,151.99 -107.61,195.42 -207.79,195.42 -141.01,0 -252.32,-126.66 -252.32,-325.71 0,-191.8 115.02,-379.98 348.79,-423.41l-122.45 -586.26c-452.7,90.47 -719.86,474.07 -719.86,1002.44zm589.99 -3354.74l-534.34 0 0 2164.11 534.34 0 0 -785.3 1951.81 0 0 -593.51 -1951.81 0 0 -785.3zm-589.99 -1393.29c0,723.79 575.15,1291.96 1302.44,1291.96 723.58,0 1295.02,-568.17 1295.02,-1291.96 0,-723.78 -571.44,-1291.95 -1295.02,-1291.95 -727.29,0 -1302.44,568.17 -1302.44,1291.95zm2037.15 0c0,394.47 -311.69,694.84 -734.71,694.84 -426.73,0 -742.13,-300.37 -742.13,-694.84 0,-394.46 315.4,-694.83 742.13,-694.83 423.02,0 734.71,300.37 734.71,694.83zm504.65 -3850.52l-883.13 759.97c-89.07,-390.84 -382.2,-636.93 -790.38,-636.93 -486.09,0 -812.64,347.42 -812.64,872.16l0 1226.81 2486.15 0 0 -597.12 -853.45 0 0 -173.71 853.45 -731.02 0 -720.16zm-1365.52 1624.89l-597.42 0 0 -564.55c0,-213.52 118.74,-351.04 296.85,-351.04 181.82,0 300.57,137.52 300.57,351.04l0 564.55zm838.6 -3749.2l0 1291.95 -467.54 0 0 -1176.15 -497.23 0 0 1176.15 -467.54 0 0 -1281.1 -526.92 0 0 1878.22 2486.15 0 0 -1889.07 -526.92 0z"/>
 </g>
</svg>
