<svg width="1997" height="1998" viewBox="0 0 1997 1998" fill="none" xmlns="http://www.w3.org/2000/svg">
<path fill-rule="evenodd" clip-rule="evenodd" d="M998.721 0.519875C1550.05 0.519875 1997 447.466 1997 998.799C1997 1550.13 1550.05 1997.08 998.721 1997.08C447.388 1997.08 0.441406 1550.13 0.441406 998.799C0.441406 447.466 447.388 0.519875 998.721 0.519875ZM659.943 485.886C659.943 531.425 679.385 538.822 711.429 570.858C754.758 614.195 1139.6 1002.43 1153.69 1011.87L1077.39 1089.41C1015.56 1151.25 692.276 1470.55 671.935 1497.77C652.03 1524.45 655.629 1559.57 674.389 1582.97C681.071 1591.28 723.194 1633.79 733.779 1640.2C742.312 1645.37 750.653 1648.32 758.749 1649.53H776.252C814.69 1643.91 846.472 1603.18 866.499 1583.15L1381.38 1068.37C1443.29 1005.92 1378.38 957.453 1342.87 921.941L828.044 407.107C804.716 383.7 795.833 379.193 764.156 379.193C736.836 379.193 714.958 404.819 700.268 419.509C683.289 436.488 659.943 453.763 659.943 485.886Z" fill="#fafafa"/>
</svg>
