<svg width="59" height="56" viewBox="0 0 59 56" fill="none" xmlns="http://www.w3.org/2000/svg">
<path fill-rule="evenodd" clip-rule="evenodd" d="M22.2802 21.201L0.160156 21.2089C0.218739 21.3015 0.156376 21.2199 0.223652 21.2849L2.39008 22.8613C3.81269 23.9302 5.42882 25.0255 6.84501 26.0939C8.25817 27.1601 9.8966 28.2732 11.3207 29.3417C12.7513 30.4154 14.3508 31.521 15.7961 32.5898L17.8952 34.1152C17.9821 34.1776 17.984 34.1772 18.04 34.2411C17.9326 34.6988 16.5077 38.9908 16.3346 39.5128C16.0315 40.4244 11.2342 55.058 11.2293 55.2798L23.5112 46.3635C23.9016 46.082 24.2528 45.8148 24.6443 45.5388C25.3896 45.0146 26.1191 44.4424 26.8689 43.9201C27.5432 43.4507 28.4802 42.7084 29.1197 42.2915C29.2606 42.3455 29.5596 42.5787 29.6836 42.6702L35.8359 47.1414C37.3156 48.1902 38.8285 49.3411 40.3105 50.3899L42.5623 52.0188C43.3061 52.5748 44.0635 53.0922 44.81 53.6505L47.0705 55.2802L40.222 34.1908C40.3819 34.1194 41.1722 33.5358 41.3615 33.3926L55.8281 22.8768C56.2049 22.6051 56.5783 22.3454 56.9415 22.0684L57.9964 21.3068C58.0784 21.2312 58.016 21.3155 58.0803 21.2089H36.009L29.1533 0.150879C29.0471 0.29828 23.6473 17.0102 23.1491 18.5526L22.2802 21.201Z" fill="#FED300"/>
</svg>
